<?xml version="1.0" encoding="UTF-8" standalone="no"?>
<svg
   xmlns:dc="http://purl.org/dc/elements/1.1/"
   xmlns:cc="http://creativecommons.org/ns#"
   xmlns:rdf="http://www.w3.org/1999/02/22-rdf-syntax-ns#"
   xmlns:svg="http://www.w3.org/2000/svg"
   xmlns="http://www.w3.org/2000/svg"
   viewBox="0 0 1133.8583 595.27557"
   id="svg2"
   height="595.27557"
   width="1133.8583"
   version="1.1">
  <metadata
     id="metadata184">
    <rdf:RDF>
      <cc:Work
         rdf:about="">
        <dc:format>image/svg+xml</dc:format>
        <dc:type
           rdf:resource="http://purl.org/dc/dcmitype/StillImage" />
      </cc:Work>
    </rdf:RDF>
  </metadata>
  <defs
     id="defs182" />
  <g
     id="g4">
    <path
       id="path6"
       style="fill:#e30016;fill-rule:evenodd;stroke:#1b1918;stroke-width:0.56690001;stroke-linecap:butt;stroke-linejoin:miter;stroke-dasharray:none"
       d="m 872.9524,155.7323 -45,0 0,5.5001 -45,-11.0001 45,-11.0002 0,5.5001 45,0 0,11.0001 z" />
  </g>
  <g
     id="g8">
    <path
       id="path10"
       style="fill:none;stroke:#ff003f;stroke-width:0.7087;stroke-linecap:butt;stroke-linejoin:bevel;stroke-dasharray:none"
       d="m 905.1849,266.3184 c 0,0 -209.7635,0 -209.7635,0 0,0 0,-28.3468 0,-28.3468 0,0 209.7635,0 209.7635,0 0,0 0,28.3468 0,28.3468 z" />
    <path
       id="path12"
       style="fill:none;stroke:#4c4c99;stroke-width:0.7087;stroke-linecap:butt;stroke-linejoin:bevel;stroke-dasharray:none"
       d="m 704.634,258.5228 c -3.5229,0 -6.3786,-2.8553 -6.3786,-6.3777 0,-3.5226 2.8557,-6.3782 6.3786,-6.3782 3.5223,0 6.3773,2.8556 6.3773,6.3782 0,3.5224 -2.855,6.3777 -6.3773,6.3777 z" />
    <path
       id="path14"
       style="fill:none;stroke:#4c4c99;stroke-width:0.7087;stroke-linecap:butt;stroke-linejoin:bevel;stroke-dasharray:none"
       d="m 800.303,258.5228 c -3.5227,0 -6.3777,-2.8553 -6.3777,-6.3777 0,-3.5226 2.855,-6.3782 6.3777,-6.3782 3.5226,0 6.3779,2.8556 6.3779,6.3782 0,3.5224 -2.8553,6.3777 -6.3779,6.3777 z" />
    <path
       id="path16"
       style="fill:none;stroke:#4c4c99;stroke-width:0.7087;stroke-linecap:butt;stroke-linejoin:bevel;stroke-dasharray:none"
       d="m 895.9723,258.5228 c -3.5227,0 -6.3786,-2.8553 -6.3786,-6.3777 0,-3.5226 2.8559,-6.3782 6.3786,-6.3782 3.5226,0 6.3773,2.8556 6.3773,6.3782 0,3.5224 -2.8547,6.3777 -6.3773,6.3777 z" />
    <path
       id="path18"
       style="fill:none;stroke:#ff003f;stroke-width:0.7087;stroke-linecap:butt;stroke-linejoin:bevel;stroke-dasharray:none"
       d="m 905.1849,229.1842 c 0,0 -209.7635,0 -209.7635,0 0,0 0,-28.3462 0,-28.3462 0,0 209.7635,0 209.7635,0 0,0 0,28.3462 0,28.3462 z" />
    <path
       id="path20"
       style="fill:none;stroke:#4c4c99;stroke-width:0.7087;stroke-linecap:butt;stroke-linejoin:bevel;stroke-dasharray:none"
       d="m 704.634,221.3892 c -3.5229,0 -6.3786,-2.8559 -6.3786,-6.3782 0,-3.5221 2.8557,-6.3777 6.3786,-6.3777 3.5223,0 6.3773,2.8556 6.3773,6.3777 0,3.5223 -2.855,6.3782 -6.3773,6.3782 z" />
    <path
       id="path22"
       style="fill:none;stroke:#4c4c99;stroke-width:0.7087;stroke-linecap:butt;stroke-linejoin:bevel;stroke-dasharray:none"
       d="m 800.303,221.3892 c -3.5227,0 -6.3777,-2.8559 -6.3777,-6.3782 0,-3.5221 2.855,-6.3777 6.3777,-6.3777 3.5226,0 6.3779,2.8556 6.3779,6.3777 0,3.5223 -2.8553,6.3782 -6.3779,6.3782 z" />
    <path
       id="path24"
       style="fill:none;stroke:#4c4c99;stroke-width:0.7087;stroke-linecap:butt;stroke-linejoin:bevel;stroke-dasharray:none"
       d="m 895.9723,221.3892 c -3.5227,0 -6.3786,-2.8559 -6.3786,-6.3782 0,-3.5221 2.8559,-6.3777 6.3786,-6.3777 3.5226,0 6.3773,2.8556 6.3773,6.3777 0,3.5223 -2.8547,6.3782 -6.3773,6.3782 z" />
    <path
       id="path26"
       style="fill:none;stroke:#4c4c99;stroke-width:0.7087;stroke-linecap:butt;stroke-linejoin:bevel;stroke-dasharray:none"
       d="m 748.8062,117.8977 c -1.9564,0 -3.543,1.586 -3.543,3.5433 0,1.9568 1.5866,3.5433 3.543,3.5433 1.9574,0 3.5433,-1.5865 3.5433,-3.5433 0,-1.9573 -1.5859,-3.5433 -3.5433,-3.5433 z" />
    <path
       id="path28"
       style="fill:none;stroke:#4c4c99;stroke-width:0.7087;stroke-linecap:butt;stroke-linejoin:bevel;stroke-dasharray:none"
       d="m 465.342,117.8977 c -1.9574,0 -3.5434,1.586 -3.5434,3.5433 0,1.9568 1.586,3.5433 3.5434,3.5433 1.9573,0 3.5433,-1.5865 3.5433,-3.5433 0,-1.9573 -1.586,-3.5433 -3.5433,-3.5433 z" />
    <path
       id="path30"
       style="fill:none;stroke:#4c4c99;stroke-width:0.7087;stroke-linecap:butt;stroke-linejoin:bevel;stroke-dasharray:none"
       d="m 607.074,117.8977 c -1.9565,0 -3.5434,1.586 -3.5434,3.5433 0,1.9568 1.5869,3.5433 3.5434,3.5433 1.9576,0 3.5435,-1.5865 3.5435,-3.5433 0,-1.9573 -1.5859,-3.5433 -3.5435,-3.5433 z" />
    <path
       id="path32"
       style="fill:none;stroke:#ff003f;stroke-width:0.7087;stroke-linecap:butt;stroke-linejoin:bevel;stroke-dasharray:none"
       d="m 734.6336,108.6851 c 0,0 -113.3859,0 -113.3859,0 0,0 0,-8.5042 0,-8.5042 0,0 -28.3464,0 -28.3464,0 0,0 0,8.5042 0,8.5042 0,0 -113.3858,0 -113.3858,0 0,0 0,-8.5042 0,-8.5042 0,0 -28.3471,0 -28.3471,0 0,0 0,36.8504 0,36.8504 0,0 311.8113,0 311.8113,0 0,0 0,-36.8504 0,-36.8504 0,0 -28.3461,0 -28.3461,0 0,0 0,8.5042 0,8.5042 z" />
    <path
       id="path34"
       style="fill:none;stroke:#4c4c99;stroke-width:0.7087;stroke-linecap:butt;stroke-linejoin:bevel;stroke-dasharray:none"
       d="m 748.8062,158.1075 c -1.9564,0 -3.543,1.5862 -3.543,3.543 0,1.957 1.5866,3.5433 3.543,3.5433 1.9574,0 3.5433,-1.5863 3.5433,-3.5433 0,-1.9568 -1.5859,-3.543 -3.5433,-3.543 z" />
    <path
       id="path36"
       style="fill:none;stroke:#4c4c99;stroke-width:0.7087;stroke-linecap:butt;stroke-linejoin:bevel;stroke-dasharray:none"
       d="m 465.342,158.1075 c -1.9574,0 -3.5434,1.5862 -3.5434,3.543 0,1.957 1.586,3.5433 3.5434,3.5433 1.9573,0 3.5433,-1.5863 3.5433,-3.5433 0,-1.9568 -1.586,-3.543 -3.5433,-3.543 z" />
    <path
       id="path38"
       style="fill:none;stroke:#4c4c99;stroke-width:0.7087;stroke-linecap:butt;stroke-linejoin:bevel;stroke-dasharray:none"
       d="m 607.074,158.1075 c -1.9565,0 -3.5434,1.5862 -3.5434,3.543 0,1.957 1.5869,3.5433 3.5434,3.5433 1.9576,0 3.5435,-1.5863 3.5435,-3.5433 0,-1.9568 -1.5859,-3.543 -3.5435,-3.543 z" />
    <path
       id="path40"
       style="fill:none;stroke:#ff003f;stroke-width:0.7087;stroke-linecap:butt;stroke-linejoin:bevel;stroke-dasharray:none"
       d="m 734.6336,148.8949 c 0,0 -113.3859,0 -113.3859,0 0,0 0,-8.504 0,-8.504 0,0 -28.3464,0 -28.3464,0 0,0 0,8.504 0,8.504 0,0 -113.3858,0 -113.3858,0 0,0 0,-8.504 0,-8.504 0,0 -28.3471,0 -28.3471,0 0,0 0,36.8504 0,36.8504 0,0 311.8113,0 311.8113,0 0,0 0,-36.8504 0,-36.8504 0,0 -28.3461,0 -28.3461,0 0,0 0,8.504 0,8.504 z" />
    <path
       id="path42"
       style="fill:none;stroke:#4c4c99;stroke-width:0.7087;stroke-linecap:butt;stroke-linejoin:bevel;stroke-dasharray:none"
       d="m 244.4244,311.9051 c 3.9141,0 7.0863,-3.1728 7.0863,-7.0866 0,-3.9138 -3.1722,-7.0866 -7.0863,-7.0866 -3.9141,0 -7.0863,3.1728 -7.0863,7.0866 0,3.9138 3.1722,7.0866 7.0863,7.0866 z" />
    <path
       id="path44"
       style="fill:none;stroke:#4c4c99;stroke-width:0.7087;stroke-linecap:butt;stroke-linejoin:bevel;stroke-dasharray:none"
       d="m 244.4244,170.1731 c 3.9141,0 7.0863,-3.1731 7.0863,-7.0866 0,-3.9138 -3.1722,-7.0869 -7.0863,-7.0869 -3.9141,0 -7.0863,3.1731 -7.0863,7.0869 0,3.9135 3.1722,7.0866 7.0863,7.0866 z" />
    <path
       id="path46"
       style="fill:none;stroke:#4c4c99;stroke-width:0.7087;stroke-linecap:butt;stroke-linejoin:bevel;stroke-dasharray:none"
       d="m 244.4244,453.6374 c 3.9141,0 7.0863,-3.1728 7.0863,-7.0866 0,-3.9138 -3.1722,-7.0866 -7.0863,-7.0866 -3.9141,0 -7.0863,3.1728 -7.0863,7.0866 0,3.9138 3.1722,7.0866 7.0863,7.0866 z" />
    <path
       id="path48"
       style="fill:none;stroke:#ff003f;stroke-width:0.7087;stroke-linecap:butt;stroke-linejoin:bevel;stroke-dasharray:none"
       d="m 257.18,474.8975 c 0,0 -240.9449,0 -240.9449,0 0,0 0,-340.158 0,-340.158 0,0 240.9449,0 240.9449,0 0,0 0,340.158 0,340.158 z" />
    <path
       id="path50"
       style="fill:none;stroke:#4c4c99;stroke-width:0.7087;stroke-linecap:butt;stroke-linejoin:bevel;stroke-dasharray:none"
       d="m 28.9911,311.9051 c -3.9138,0 -7.0869,-3.1728 -7.0869,-7.0866 0,-3.9138 3.1731,-7.0866 7.0869,-7.0866 3.9138,0 7.0869,3.1728 7.0869,7.0866 0,3.9138 -3.1731,7.0866 -7.0869,7.0866 z" />
    <path
       id="path52"
       style="fill:none;stroke:#4c4c99;stroke-width:0.7087;stroke-linecap:butt;stroke-linejoin:bevel;stroke-dasharray:none"
       d="m 28.9911,170.1731 c -3.9138,0 -7.0869,-3.1731 -7.0869,-7.0866 0,-3.9138 3.1731,-7.0869 7.0869,-7.0869 3.9138,0 7.0869,3.1731 7.0869,7.0869 0,3.9135 -3.1731,7.0866 -7.0869,7.0866 z" />
    <path
       id="path54"
       style="fill:none;stroke:#4c4c99;stroke-width:0.7087;stroke-linecap:butt;stroke-linejoin:bevel;stroke-dasharray:none"
       d="m 28.9911,453.6374 c -3.9138,0 -7.0869,-3.1728 -7.0869,-7.0866 0,-3.9138 3.1731,-7.0866 7.0869,-7.0866 3.9138,0 7.0869,3.1728 7.0869,7.0866 0,3.9138 -3.1731,7.0866 -7.0869,7.0866 z" />
    <path
       id="path56"
       style="fill:none;stroke:#4c4c99;stroke-width:0.7087;stroke-linecap:butt;stroke-linejoin:bevel;stroke-dasharray:none"
       d="m 147.2593,328.6242 c -1.9573,0 -3.543,1.5862 -3.543,3.5427 -3e-4,1.9573 1.5857,3.5433 3.543,3.5433 1.9564,3e-4 3.5433,-1.586 3.5433,-3.5427 3e-4,-1.9571 -1.5869,-3.5433 -3.5433,-3.5433 z" />
    <path
       id="path58"
       style="fill:none;stroke:#4c4c99;stroke-width:0.7087;stroke-linecap:butt;stroke-linejoin:bevel;stroke-dasharray:none"
       d="m 67.8192,328.6242 c -1.9573,0 -3.543,1.5862 -3.543,3.5427 -3e-4,1.9573 1.5857,3.5433 3.543,3.5433 1.9565,3e-4 3.5433,-1.586 3.5433,-3.5427 3e-4,-1.9571 -1.5868,-3.5433 -3.5433,-3.5433 z" />
    <path
       id="path60"
       style="fill:none;stroke:#ff003f;stroke-width:0.7087;stroke-linecap:butt;stroke-linejoin:bevel;stroke-dasharray:none"
       d="m 351.1414,474.8975 c 0,0 0,-340.1574 0,-340.1574 0,0 -8.5039,0 -8.5039,0 0,0 0,-8.504 0,-8.504 0,0 -8.5036,0 -8.5036,0 0,0 0,8.504 0,8.504 0,0 -8.5045,0 -8.5045,0 0,0 0,-8.504 0,-8.504 0,0 -8.5034,0 -8.5034,0 0,0 0,8.504 0,8.504 0,0 -8.504,0 -8.504,0 0,0 0,-8.504 0,-8.504 0,0 -8.5045,0 -8.5045,0 0,0 0,8.504 0,8.504 0,0 -8.5033,0 -8.5033,0 0,0 0,-8.504 0,-8.504 0,0 -8.5042,0 -8.5042,0 0,0 0,8.504 0,8.504 0,0 -8.5043,0 -8.5043,0 0,0 0,-8.504 0,-8.504 0,0 -8.5033,0 -8.5033,0 0,0 0,8.504 0,8.504 0,0 0,348.6611 0,348.6611 0,0 8.5033,0 8.5033,0 0,0 0,-8.5037 0,-8.5037 0,0 8.5043,0 8.5043,0 0,0 0,8.5037 0,8.5037 0,0 8.5042,0 8.5042,0 0,0 0,-8.5037 0,-8.5037 0,0 8.5033,0 8.5033,0 0,0 0,8.5037 0,8.5037 0,0 8.5045,0 8.5045,0 0,0 0,-8.5037 0,-8.5037 0,0 8.504,0 8.504,0 0,0 0,8.5037 0,8.5037 0,0 8.5034,0 8.5034,0 0,0 0,-8.5037 0,-8.5037 0,0 8.5045,0 8.5045,0 0,0 0,8.5037 0,8.5037 0,0 8.5036,0 8.5036,0 0,0 0,-8.5037 0,-8.5037 0,0 8.5039,0 8.5039,0 z" />
    <path
       id="path62"
       style="fill:none;stroke:#4c4c99;stroke-width:0.7087;stroke-linecap:butt;stroke-linejoin:bevel;stroke-dasharray:none"
       d="m 342.6375,290.6453 c 0,0 -5.6696,0 -5.6696,0 0,0 0,-141.7323 0,-141.7323 0,0 5.6696,0 5.6696,0 0,0 0,141.7323 0,141.7323 z" />
    <path
       id="path64"
       style="fill:none;stroke:#4c4c99;stroke-width:0.7087;stroke-linecap:butt;stroke-linejoin:bevel;stroke-dasharray:none"
       d="m 342.6375,460.724 c 0,0 -5.6696,0 -5.6696,0 0,0 0,-141.7323 0,-141.7323 0,0 5.6696,0 5.6696,0 0,0 0,141.7323 0,141.7323 z" />
    <path
       id="path66"
       style="fill:none;stroke:#4c4c99;stroke-width:0.7087;stroke-linecap:butt;stroke-linejoin:bevel;stroke-dasharray:none"
       d="m 283.11,318.9917 c 0,0 -8.5043,0 -8.5043,0 0,0 0,-28.3464 0,-28.3464 0,0 8.5043,0 8.5043,0 0,0 0,28.3464 0,28.3464 z" />
    <path
       id="path68"
       style="fill:none;stroke:#4c4c99;stroke-width:0.7087;stroke-linecap:butt;stroke-linejoin:bevel;stroke-dasharray:none"
       d="m 283.11,460.724 c 0,0 -8.5043,0 -8.5043,0 0,0 0,-28.3461 0,-28.3461 0,0 8.5043,0 8.5043,0 0,0 0,28.3461 0,28.3461 z" />
    <path
       id="path70"
       style="fill:none;stroke:#4c4c99;stroke-width:0.7087;stroke-linecap:butt;stroke-linejoin:bevel;stroke-dasharray:none"
       d="m 283.11,177.2597 c 0,0 -8.5043,0 -8.5043,0 0,0 0,-28.3467 0,-28.3467 0,0 8.5043,0 8.5043,0 0,0 0,28.3467 0,28.3467 z" />
    <path
       id="path72"
       style="fill:none;stroke:#ff003f;stroke-width:0.7087;stroke-linecap:butt;stroke-linejoin:bevel;stroke-dasharray:none"
       d="m 443.3306,474.8975 c 0,0 0,-340.1574 0,-340.1574 0,0 -8.5039,0 -8.5039,0 0,0 0,-8.504 0,-8.504 0,0 -8.5036,0 -8.5036,0 0,0 0,8.504 0,8.504 0,0 -8.5045,0 -8.5045,0 0,0 0,-8.504 0,-8.504 0,0 -8.5034,0 -8.5034,0 0,0 0,8.504 0,8.504 0,0 -8.5042,0 -8.5042,0 0,0 0,-8.504 0,-8.504 0,0 -8.5043,0 -8.5043,0 0,0 0,8.504 0,8.504 0,0 -8.5033,0 -8.5033,0 0,0 0,-8.504 0,-8.504 0,0 -8.5043,0 -8.5043,0 0,0 0,8.504 0,8.504 0,0 -8.5039,0 -8.5039,0 0,0 0,-8.504 0,-8.504 0,0 -8.5036,0 -8.5036,0 0,0 0,8.504 0,8.504 0,0 0,348.6611 0,348.6611 0,0 8.5036,0 8.5036,0 0,0 0,-8.5037 0,-8.5037 0,0 8.5039,0 8.5039,0 0,0 0,8.5037 0,8.5037 0,0 8.5043,0 8.5043,0 0,0 0,-8.5037 0,-8.5037 0,0 8.5033,0 8.5033,0 0,0 0,8.5037 0,8.5037 0,0 8.5043,0 8.5043,0 0,0 0,-8.5037 0,-8.5037 0,0 8.5042,0 8.5042,0 0,0 0,8.5037 0,8.5037 0,0 8.5034,0 8.5034,0 0,0 0,-8.5037 0,-8.5037 0,0 8.5045,0 8.5045,0 0,0 0,8.5037 0,8.5037 0,0 8.5036,0 8.5036,0 0,0 0,-8.5037 0,-8.5037 0,0 8.5039,0 8.5039,0 z" />
    <path
       id="path74"
       style="fill:none;stroke:#4c4c99;stroke-width:0.7087;stroke-linecap:butt;stroke-linejoin:bevel;stroke-dasharray:none"
       d="m 434.8267,290.6453 c 0,0 -5.6696,0 -5.6696,0 0,0 0,-141.7323 0,-141.7323 0,0 5.6696,0 5.6696,0 0,0 0,141.7323 0,141.7323 z" />
    <path
       id="path76"
       style="fill:none;stroke:#4c4c99;stroke-width:0.7087;stroke-linecap:butt;stroke-linejoin:bevel;stroke-dasharray:none"
       d="m 434.8267,460.724 c 0,0 -5.6696,0 -5.6696,0 0,0 0,-141.7323 0,-141.7323 0,0 5.6696,0 5.6696,0 0,0 0,141.7323 0,141.7323 z" />
    <path
       id="path78"
       style="fill:none;stroke:#4c4c99;stroke-width:0.7087;stroke-linecap:butt;stroke-linejoin:bevel;stroke-dasharray:none"
       d="m 375.2991,318.9917 c 0,0 -8.5039,0 -8.5039,0 0,0 0,-28.3464 0,-28.3464 0,0 8.5039,0 8.5039,0 0,0 0,28.3464 0,28.3464 z" />
    <path
       id="path80"
       style="fill:none;stroke:#4c4c99;stroke-width:0.7087;stroke-linecap:butt;stroke-linejoin:bevel;stroke-dasharray:none"
       d="m 375.2991,460.724 c 0,0 -8.5039,0 -8.5039,0 0,0 0,-28.3461 0,-28.3461 0,0 8.5039,0 8.5039,0 0,0 0,28.3461 0,28.3461 z" />
    <path
       id="path82"
       style="fill:none;stroke:#4c4c99;stroke-width:0.7087;stroke-linecap:butt;stroke-linejoin:bevel;stroke-dasharray:none"
       d="m 375.2991,177.2597 c 0,0 -8.5039,0 -8.5039,0 0,0 0,-28.3467 0,-28.3467 0,0 8.5039,0 8.5039,0 0,0 0,28.3467 0,28.3467 z" />
    <path
       id="path84"
       style="fill:none;stroke:#ff003f;stroke-width:0.7087;stroke-linecap:butt;stroke-linejoin:bevel;stroke-dasharray:none"
       d="m 709.1215,308.19 c 0,0 0,8.5037 0,8.5037 0,0 -8.504,0 -8.504,0 0,0 0,8.5042 0,8.5042 0,0 8.504,0 8.504,0 0,0 0,8.504 0,8.504 0,0 -8.504,0 -8.504,0 0,0 0,8.5036 0,8.5036 0,0 8.504,0 8.504,0 0,0 0,8.5042 0,8.5042 0,0 -8.504,0 -8.504,0 0,0 0,8.504 0,8.504 0,0 8.504,0 8.504,0 0,0 0,8.5036 0,8.5036 0,0 -8.504,0 -8.504,0 0,0 0,8.5042 0,8.5042 0,0 8.504,0 8.504,0 0,0 0,8.5037 0,8.5037 0,0 -8.504,0 -8.504,0 0,0 0,8.5039 0,8.5039 -142.9886,0 -79.9242,0 -240.9448,0 0,0 0,-8.5039 0,-8.5039 0,0 -8.5043,0 -8.5043,0 0,0 0,-8.5037 0,-8.5037 0,0 8.5043,0 8.5043,0 0,0 0,-8.5042 0,-8.5042 0,0 -8.5043,0 -8.5043,0 0,0 0,-8.5036 0,-8.5036 0,0 8.5043,0 8.5043,0 0,0 0,-8.504 0,-8.504 0,0 -8.5043,0 -8.5043,0 0,0 0,-8.5042 0,-8.5042 0,0 8.5043,0 8.5043,0 0,0 0,-8.5036 0,-8.5036 0,0 -8.5043,0 -8.5043,0 0,0 0,-8.504 0,-8.504 0,0 8.5043,0 8.5043,0 0,0 0,-8.5042 0,-8.5042 0,0 -8.5043,0 -8.5043,0 0,0 0,-8.5037 0,-8.5037 0,0 257.9531,0 257.9531,0 z" />
    <path
       id="path86"
       style="fill:none;stroke:#4c4c99;stroke-width:0.7087;stroke-linecap:butt;stroke-linejoin:bevel;stroke-dasharray:none"
       d="m 565.9722,316.6937 c 0,0 0,5.6693 0,5.6693 0,0 -85.0394,0 -85.0394,0 0,0 0,-5.6693 0,-5.6693 0,0 85.0394,0 85.0394,0 z" />
    <path
       id="path88"
       style="fill:none;stroke:#4c4c99;stroke-width:0.7087;stroke-linecap:butt;stroke-linejoin:bevel;stroke-dasharray:none"
       d="m 679.358,316.6937 c 0,0 0,5.6693 0,5.6693 0,0 -85.04,0 -85.04,0 0,0 0,-5.6693 0,-5.6693 0,0 85.04,0 85.04,0 z" />
    <path
       id="path90"
       style="fill:none;stroke:#ff003f;stroke-width:0.7087;stroke-linecap:butt;stroke-linejoin:bevel;stroke-dasharray:none"
       d="m 709.1218,398.3618 c 0,0 0,8.504 0,8.504 0,0 -8.5043,0 -8.5043,0 0,0 0,8.5036 0,8.5036 0,0 8.5043,0 8.5043,0 0,0 0,8.5045 0,8.5045 0,0 -8.5043,0 -8.5043,0 0,0 0,8.504 0,8.504 0,0 8.5043,0 8.5043,0 0,0 0,8.5036 0,8.5036 0,0 -8.5043,0 -8.5043,0 0,0 0,8.5042 0,8.5042 0,0 8.5043,0 8.5043,0 0,0 0,8.504 0,8.504 0,0 -8.5043,0 -8.5043,0 0,0 0,8.5036 0,8.5036 0,0 8.5043,0 8.5043,0 0,0 0,8.5042 0,8.5042 0,0 -8.5043,0 -8.5043,0 0,0 0,8.5037 0,8.5037 -142.9886,0 -79.9239,0 -240.9446,0 0,0 0,-8.5037 0,-8.5037 0,0 -8.5036,0 -8.5036,0 0,0 0,-8.5042 0,-8.5042 0,0 8.5036,0 8.5036,0 0,0 0,-8.5036 0,-8.5036 0,0 -8.5036,0 -8.5036,0 0,0 0,-8.504 0,-8.504 0,0 8.5036,0 8.5036,0 0,0 0,-8.5042 0,-8.5042 0,0 -8.5036,0 -8.5036,0 0,0 0,-8.5036 0,-8.5036 0,0 8.5036,0 8.5036,0 0,0 0,-8.504 0,-8.504 0,0 -8.5036,0 -8.5036,0 0,0 0,-8.5045 0,-8.5045 0,0 8.5036,0 8.5036,0 0,0 0,-8.5036 0,-8.5036 0,0 -8.5036,0 -8.5036,0 0,0 0,-8.504 0,-8.504 0,0 257.9525,0 257.9525,0 z" />
    <path
       id="path92"
       style="fill:none;stroke:#4c4c99;stroke-width:0.7087;stroke-linecap:butt;stroke-linejoin:bevel;stroke-dasharray:none"
       d="m 565.9722,406.8658 c 0,0 0,5.6693 0,5.6693 0,0 -85.0391,0 -85.0391,0 0,0 0,-5.6693 0,-5.6693 0,0 85.0391,0 85.0391,0 z" />
    <path
       id="path94"
       style="fill:none;stroke:#4c4c99;stroke-width:0.7087;stroke-linecap:butt;stroke-linejoin:bevel;stroke-dasharray:none"
       d="m 679.3583,406.8658 c 0,0 0,5.6693 0,5.6693 0,0 -85.04,0 -85.04,0 0,0 0,-5.6693 0,-5.6693 0,0 85.04,0 85.04,0 z" />
    <path
       id="path96"
       style="fill:none;stroke:#4c4c99;stroke-width:0.7087;stroke-linecap:butt;stroke-linejoin:bevel;stroke-dasharray:none"
       d="m 580.1888,430.9605 c 0,0 35.4333,0 35.4333,0 0,0 0,32.5985 0,32.5985 0,0 -35.4333,0 -35.4333,0 0,0 0,-32.5985 0,-32.5985 z" />
    <path
       id="path98"
       style="fill:none;stroke:#ff003f;stroke-width:0.7087;stroke-linecap:butt;stroke-linejoin:bevel;stroke-dasharray:none"
       d="m 907.1819,483.4012 c 0,0 -172.9131,0 -172.9131,0 0,-10.148 -8.2769,-18.4252 -18.4252,-18.4252 0,0 0,-172.535 0,-172.535 10.1483,0 18.4252,-8.2768 18.4252,-18.4252 0,0 172.9131,0 172.9131,0 0,10.1484 8.2766,18.4252 18.4252,18.4252 0,0 0,172.535 0,172.535 -10.1486,0 -18.4252,8.2772 -18.4252,18.4252 z" />
    <path
       id="path100"
       style="fill:none;stroke:#4c4c99;stroke-width:0.7087;stroke-linecap:butt;stroke-linejoin:bevel;stroke-dasharray:none"
       d="m 874.158,433.4173 c 0,0 33.4491,0 33.4491,0 0,0 0,33.4488 0,33.4488 0,0 -33.4491,0 -33.4491,0 0,0 0,-33.4488 0,-33.4488 z" />
    <path
       id="path102"
       style="fill:none;stroke:#4c4c99;stroke-width:0.7087;stroke-linecap:butt;stroke-linejoin:bevel;stroke-dasharray:none"
       d="m 827.3869,433.4173 c 0,0 33.4488,0 33.4488,0 0,0 0,33.4488 0,33.4488 0,0 -33.4488,0 -33.4488,0 0,0 0,-33.4488 0,-33.4488 z" />
    <path
       id="path104"
       style="fill:none;stroke:#4c4c99;stroke-width:0.7087;stroke-linecap:butt;stroke-linejoin:bevel;stroke-dasharray:none"
       d="m 780.6146,433.4173 c 0,0 33.4491,0 33.4491,0 0,0 0,33.4488 0,33.4488 0,0 -33.4491,0 -33.4491,0 0,0 0,-33.4488 0,-33.4488 z" />
    <path
       id="path106"
       style="fill:none;stroke:#4c4c99;stroke-width:0.7087;stroke-linecap:butt;stroke-linejoin:bevel;stroke-dasharray:none"
       d="m 733.8436,433.4173 c 0,0 33.4488,0 33.4488,0 0,0 0,33.4488 0,33.4488 0,0 -33.4488,0 -33.4488,0 0,0 0,-33.4488 0,-33.4488 z" />
    <path
       id="path108"
       style="fill:none;stroke:#4c4c99;stroke-width:0.7087;stroke-linecap:butt;stroke-linejoin:bevel;stroke-dasharray:none"
       d="m 874.158,385.795 c 0,0 33.4491,0 33.4491,0 0,0 0,33.4488 0,33.4488 0,0 -33.4491,0 -33.4491,0 0,0 0,-33.4488 0,-33.4488 z" />
    <path
       id="path110"
       style="fill:none;stroke:#4c4c99;stroke-width:0.7087;stroke-linecap:butt;stroke-linejoin:bevel;stroke-dasharray:none"
       d="m 874.158,338.1729 c 0,0 33.4491,0 33.4491,0 0,0 0,33.4491 0,33.4491 0,0 -33.4491,0 -33.4491,0 0,0 0,-33.4491 0,-33.4491 z" />
    <path
       id="path112"
       style="fill:none;stroke:#4c4c99;stroke-width:0.7087;stroke-linecap:butt;stroke-linejoin:bevel;stroke-dasharray:none"
       d="m 874.158,290.5509 c 0,0 33.4491,0 33.4491,0 0,0 0,33.4485 0,33.4485 0,0 -33.4491,0 -33.4491,0 0,0 0,-33.4485 0,-33.4485 z" />
    <path
       id="path114"
       style="fill:none;stroke:#4c4c99;stroke-width:0.7087;stroke-linecap:butt;stroke-linejoin:bevel;stroke-dasharray:none"
       d="m 733.8436,338.1729 c 0,0 33.4488,0 33.4488,0 0,0 0,33.4491 0,33.4491 0,0 -33.4488,0 -33.4488,0 0,0 0,-33.4491 0,-33.4491 z" />
    <path
       id="path116"
       style="fill:none;stroke:#4c4c99;stroke-width:0.7087;stroke-linecap:butt;stroke-linejoin:bevel;stroke-dasharray:none"
       d="m 733.8436,290.5509 c 0,0 33.4488,0 33.4488,0 0,0 0,33.4485 0,33.4485 0,0 -33.4488,0 -33.4488,0 0,0 0,-33.4485 0,-33.4485 z" />
    <path
       id="path118"
       style="fill:none;stroke:#4c4c99;stroke-width:0.7087;stroke-linecap:butt;stroke-linejoin:bevel;stroke-dasharray:none"
       d="m 827.3869,385.795 c 0,0 33.4488,0 33.4488,0 0,0 0,33.4488 0,33.4488 0,0 -33.4488,0 -33.4488,0 0,0 0,-33.4488 0,-33.4488 z" />
    <path
       id="path120"
       style="fill:none;stroke:#4c4c99;stroke-width:0.7087;stroke-linecap:butt;stroke-linejoin:bevel;stroke-dasharray:none"
       d="m 827.3869,338.1729 c 0,0 33.4488,0 33.4488,0 0,0 0,33.4491 0,33.4491 0,0 -33.4488,0 -33.4488,0 0,0 0,-33.4491 0,-33.4491 z" />
    <path
       id="path122"
       style="fill:none;stroke:#4c4c99;stroke-width:0.7087;stroke-linecap:butt;stroke-linejoin:bevel;stroke-dasharray:none"
       d="m 827.3869,290.5509 c 0,0 33.4488,0 33.4488,0 0,0 0,33.4485 0,33.4485 0,0 -33.4488,0 -33.4488,0 0,0 0,-33.4485 0,-33.4485 z" />
    <path
       id="path124"
       style="fill:none;stroke:#4c4c99;stroke-width:0.7087;stroke-linecap:butt;stroke-linejoin:bevel;stroke-dasharray:none"
       d="m 780.6146,385.795 c 0,0 33.4491,0 33.4491,0 0,0 0,33.4488 0,33.4488 0,0 -33.4491,0 -33.4491,0 0,0 0,-33.4488 0,-33.4488 z" />
    <path
       id="path126"
       style="fill:none;stroke:#4c4c99;stroke-width:0.7087;stroke-linecap:butt;stroke-linejoin:bevel;stroke-dasharray:none"
       d="m 780.6146,338.1729 c 0,0 33.4491,0 33.4491,0 0,0 0,33.4491 0,33.4491 0,0 -33.4491,0 -33.4491,0 0,0 0,-33.4491 0,-33.4491 z" />
    <path
       id="path128"
       style="fill:none;stroke:#4c4c99;stroke-width:0.7087;stroke-linecap:butt;stroke-linejoin:bevel;stroke-dasharray:none"
       d="m 780.6146,290.5509 c 0,0 33.4491,0 33.4491,0 0,0 0,33.4485 0,33.4485 0,0 -33.4491,0 -33.4491,0 0,0 0,-33.4485 0,-33.4485 z" />
    <path
       id="path130"
       style="fill:none;stroke:#4c4c99;stroke-width:0.7087;stroke-linecap:butt;stroke-linejoin:bevel;stroke-dasharray:none"
       d="m 733.8436,385.795 c 0,0 33.4488,0 33.4488,0 0,0 0,33.4488 0,33.4488 0,0 -33.4488,0 -33.4488,0 0,0 0,-33.4488 0,-33.4488 z" />
    <path
       id="path132"
       style="fill:none;stroke:#4c4c99;stroke-width:0.7087;stroke-linecap:butt;stroke-linejoin:bevel;stroke-dasharray:none"
       d="m 725.0562,453.685 c -1.9576,0 -3.5433,-1.5868 -3.5433,-3.5433 0,-1.957 1.5857,-3.5433 3.5433,-3.5433 1.9564,0 3.5433,1.5863 3.5433,3.5433 0,1.9565 -1.5869,3.5433 -3.5433,3.5433 z" />
    <path
       id="path134"
       style="fill:none;stroke:#4c4c99;stroke-width:0.7087;stroke-linecap:butt;stroke-linejoin:bevel;stroke-dasharray:none"
       d="m 820.7254,453.685 c -1.9576,0 -3.5435,-1.5868 -3.5435,-3.5433 0,-1.957 1.5859,-3.5433 3.5435,-3.5433 1.9571,0 3.5434,1.5863 3.5434,3.5433 0,1.9565 -1.5863,3.5433 -3.5434,3.5433 z" />
    <path
       id="path136"
       style="fill:none;stroke:#4c4c99;stroke-width:0.7087;stroke-linecap:butt;stroke-linejoin:bevel;stroke-dasharray:none"
       d="m 725.0562,406.0627 c -1.9576,0 -3.5433,-1.5863 -3.5433,-3.5433 0,-1.9565 1.5857,-3.5433 3.5433,-3.5433 1.9564,0 3.5433,1.5868 3.5433,3.5433 0,1.957 -1.5869,3.5433 -3.5433,3.5433 z" />
    <path
       id="path138"
       style="fill:none;stroke:#4c4c99;stroke-width:0.7087;stroke-linecap:butt;stroke-linejoin:bevel;stroke-dasharray:none"
       d="m 725.0562,358.4409 c -1.9576,0 -3.5433,-1.5868 -3.5433,-3.5433 0,-1.957 1.5857,-3.5433 3.5433,-3.5433 1.9564,0 3.5433,1.5863 3.5433,3.5433 0,1.9565 -1.5869,3.5433 -3.5433,3.5433 z" />
    <path
       id="path140"
       style="fill:none;stroke:#4c4c99;stroke-width:0.7087;stroke-linecap:butt;stroke-linejoin:bevel;stroke-dasharray:none"
       d="m 725.0562,310.8186 c -1.9576,0 -3.5433,-1.5863 -3.5433,-3.5433 0,-1.9567 1.5857,-3.5433 3.5433,-3.5433 1.9564,0 3.5433,1.5866 3.5433,3.5433 0,1.957 -1.5869,3.5433 -3.5433,3.5433 z" />
    <path
       id="path142"
       style="fill:none;stroke:#4c4c99;stroke-width:0.7087;stroke-linecap:butt;stroke-linejoin:bevel;stroke-dasharray:none"
       d="m 820.7254,406.0627 c -1.9576,0 -3.5435,-1.5863 -3.5435,-3.5433 0,-1.9565 1.5859,-3.5433 3.5435,-3.5433 1.9571,0 3.5434,1.5868 3.5434,3.5433 0,1.957 -1.5863,3.5433 -3.5434,3.5433 z" />
    <path
       id="path144"
       style="fill:none;stroke:#4c4c99;stroke-width:0.7087;stroke-linecap:butt;stroke-linejoin:bevel;stroke-dasharray:none"
       d="m 820.7254,358.4409 c -1.9576,0 -3.5435,-1.5868 -3.5435,-3.5433 0,-1.957 1.5859,-3.5433 3.5435,-3.5433 1.9571,0 3.5434,1.5863 3.5434,3.5433 0,1.9565 -1.5863,3.5433 -3.5434,3.5433 z" />
    <path
       id="path146"
       style="fill:none;stroke:#4c4c99;stroke-width:0.7087;stroke-linecap:butt;stroke-linejoin:bevel;stroke-dasharray:none"
       d="m 820.7254,310.8186 c -1.9576,0 -3.5435,-1.5863 -3.5435,-3.5433 0,-1.9567 1.5859,-3.5433 3.5435,-3.5433 1.9571,0 3.5434,1.5866 3.5434,3.5433 0,1.957 -1.5863,3.5433 -3.5434,3.5433 z" />
    <path
       id="path148"
       style="fill:none;stroke:#4c4c99;stroke-width:0.7087;stroke-linecap:butt;stroke-linejoin:bevel;stroke-dasharray:none"
       d="m 916.3945,406.0627 c -1.9574,0 -3.5434,-1.5863 -3.5434,-3.5433 0,-1.9565 1.586,-3.5433 3.5434,-3.5433 1.9573,0 3.5435,1.5868 3.5435,3.5433 0,1.957 -1.5862,3.5433 -3.5435,3.5433 z" />
    <path
       id="path150"
       style="fill:none;stroke:#4c4c99;stroke-width:0.7087;stroke-linecap:butt;stroke-linejoin:bevel;stroke-dasharray:none"
       d="m 916.3945,358.4409 c -1.9574,0 -3.5434,-1.5868 -3.5434,-3.5433 0,-1.957 1.586,-3.5433 3.5434,-3.5433 1.9573,0 3.5435,1.5863 3.5435,3.5433 0,1.9565 -1.5862,3.5433 -3.5435,3.5433 z" />
    <path
       id="path152"
       style="fill:none;stroke:#4c4c99;stroke-width:0.7087;stroke-linecap:butt;stroke-linejoin:bevel;stroke-dasharray:none"
       d="m 916.3945,310.8186 c -1.9574,0 -3.5434,-1.5863 -3.5434,-3.5433 0,-1.9567 1.586,-3.5433 3.5434,-3.5433 1.9573,0 3.5435,1.5866 3.5435,3.5433 0,1.957 -1.5862,3.5433 -3.5435,3.5433 z" />
    <path
       id="path154"
       style="fill:none;stroke:#4c4c99;stroke-width:0.7087;stroke-linecap:butt;stroke-linejoin:bevel;stroke-dasharray:none"
       d="m 916.3945,453.685 c -1.9574,0 -3.5434,-1.5868 -3.5434,-3.5433 0,-1.957 1.586,-3.5433 3.5434,-3.5433 1.9573,0 3.5435,1.5863 3.5435,3.5433 0,1.9565 -1.5862,3.5433 -3.5435,3.5433 z" />
    <path
       id="path156"
       style="fill:none;stroke:#ff003f;stroke-width:0.7087;stroke-linecap:butt;stroke-linejoin:bevel;stroke-dasharray:none"
       d="m 666.6846,302.1491 c 0,0 -209.7638,0 -209.7638,0 0,0 0,-28.3467 0,-28.3467 0,0 209.7638,0 209.7638,0 0,0 0,28.3467 0,28.3467 z" />
    <path
       id="path158"
       style="fill:none;stroke:#4c4c99;stroke-width:0.7087;stroke-linecap:butt;stroke-linejoin:bevel;stroke-dasharray:none"
       d="m 466.1334,294.3539 c -3.5223,0 -6.3783,-2.8557 -6.3783,-6.3783 0,-3.5223 2.856,-6.3776 6.3783,-6.3776 3.5217,0 6.3777,2.8553 6.3777,6.3776 0,3.5226 -2.856,6.3783 -6.3777,6.3783 z" />
    <path
       id="path160"
       style="fill:none;stroke:#4c4c99;stroke-width:0.7087;stroke-linecap:butt;stroke-linejoin:bevel;stroke-dasharray:none"
       d="m 561.8027,294.3539 c -3.5226,0 -6.3785,-2.8557 -6.3785,-6.3783 0,-3.5223 2.8559,-6.3776 6.3785,-6.3776 3.5217,0 6.3776,2.8553 6.3776,6.3776 0,3.5226 -2.8559,6.3783 -6.3776,6.3783 z" />
    <path
       id="path162"
       style="fill:none;stroke:#4c4c99;stroke-width:0.7087;stroke-linecap:butt;stroke-linejoin:bevel;stroke-dasharray:none"
       d="m 657.472,294.3539 c -3.5226,0 -6.3786,-2.8557 -6.3786,-6.3783 0,-3.5223 2.856,-6.3776 6.3786,-6.3776 3.5217,0 6.3774,2.8553 6.3774,6.3776 0,3.5226 -2.8557,6.3783 -6.3774,6.3783 z" />
    <path
       id="path164"
       style="fill:none;stroke:#ff003f;stroke-width:0.7087;stroke-linecap:butt;stroke-linejoin:bevel;stroke-dasharray:none"
       d="m 666.6846,265.015 c 0,0 -209.7638,0 -209.7638,0 0,0 0,-28.3465 0,-28.3465 0,0 209.7638,0 209.7638,0 0,0 0,28.3465 0,28.3465 z" />
    <path
       id="path166"
       style="fill:none;stroke:#4c4c99;stroke-width:0.7087;stroke-linecap:butt;stroke-linejoin:bevel;stroke-dasharray:none"
       d="m 466.1334,257.2197 c -3.5223,0 -6.3783,-2.8556 -6.3783,-6.3777 0,-3.5226 2.856,-6.3782 6.3783,-6.3782 3.5217,0 6.3777,2.8556 6.3777,6.3782 0,3.5221 -2.856,6.3777 -6.3777,6.3777 z" />
    <path
       id="path168"
       style="fill:none;stroke:#4c4c99;stroke-width:0.7087;stroke-linecap:butt;stroke-linejoin:bevel;stroke-dasharray:none"
       d="m 561.8027,257.2197 c -3.5226,0 -6.3785,-2.8556 -6.3785,-6.3777 0,-3.5226 2.8559,-6.3782 6.3785,-6.3782 3.5217,0 6.3776,2.8556 6.3776,6.3782 0,3.5221 -2.8559,6.3777 -6.3776,6.3777 z" />
    <path
       id="path170"
       style="fill:none;stroke:#4c4c99;stroke-width:0.7087;stroke-linecap:butt;stroke-linejoin:bevel;stroke-dasharray:none"
       d="m 657.472,257.2197 c -3.5226,0 -6.3786,-2.8556 -6.3786,-6.3777 0,-3.5226 2.856,-6.3782 6.3786,-6.3782 3.5217,0 6.3774,2.8556 6.3774,6.3782 0,3.5221 -2.8557,6.3777 -6.3774,6.3777 z" />
    <path
       id="path172"
       style="fill:none;stroke:#ff003f;stroke-width:0.7087;stroke-linecap:butt;stroke-linejoin:bevel;stroke-dasharray:none"
       d="m 666.6846,229.1842 c 0,0 -209.7638,0 -209.7638,0 0,0 0,-28.3462 0,-28.3462 0,0 209.7638,0 209.7638,0 0,0 0,28.3462 0,28.3462 z" />
    <path
       id="path174"
       style="fill:none;stroke:#4c4c99;stroke-width:0.7087;stroke-linecap:butt;stroke-linejoin:bevel;stroke-dasharray:none"
       d="m 466.1334,221.3892 c -3.5223,0 -6.3783,-2.8559 -6.3783,-6.3782 0,-3.5221 2.856,-6.3777 6.3783,-6.3777 3.5217,0 6.3777,2.8556 6.3777,6.3777 0,3.5223 -2.856,6.3782 -6.3777,6.3782 z" />
    <path
       id="path176"
       style="fill:none;stroke:#4c4c99;stroke-width:0.7087;stroke-linecap:butt;stroke-linejoin:bevel;stroke-dasharray:none"
       d="m 561.8027,221.3892 c -3.5226,0 -6.3785,-2.8559 -6.3785,-6.3782 0,-3.5221 2.8559,-6.3777 6.3785,-6.3777 3.5217,0 6.3776,2.8556 6.3776,6.3777 0,3.5223 -2.8559,6.3782 -6.3776,6.3782 z" />
    <path
       id="path178"
       style="fill:none;stroke:#4c4c99;stroke-width:0.7087;stroke-linecap:butt;stroke-linejoin:bevel;stroke-dasharray:none"
       d="m 657.472,221.3892 c -3.5226,0 -6.3786,-2.8559 -6.3786,-6.3782 0,-3.5221 2.856,-6.3777 6.3786,-6.3777 3.5217,0 6.3774,2.8556 6.3774,6.3777 0,3.5223 -2.8557,6.3782 -6.3774,6.3782 z" />
  </g>
</svg>
